<svg width="76" height="13" viewBox="0 0 76 13" fill="none" xmlns="http://www.w3.org/2000/svg">
<g id="FoodCraft">
<path id="Vector" d="M75.1552 3.47011V4.84H70.3663V3.47011H75.1552ZM71.6505 1.36963H73.3572V9.66313C73.3572 9.99418 73.4067 10.2434 73.5056 10.4109C73.6045 10.5745 73.732 10.6867 73.888 10.7476C74.0478 10.8047 74.221 10.8332 74.4074 10.8332C74.5444 10.8332 74.6643 10.8237 74.767 10.8047C74.8698 10.7857 74.9497 10.7704 75.0068 10.759L75.315 12.1689C75.216 12.2069 75.0752 12.245 74.8926 12.283C74.7099 12.3249 74.4816 12.3477 74.2077 12.3515C73.7586 12.3591 73.3401 12.2792 72.9519 12.1118C72.5638 11.9444 72.2499 11.6856 72.0101 11.3355C71.7704 10.9854 71.6505 10.5459 71.6505 10.017V1.36963Z" fill="#2C190A"/>
<path id="Vector_2" d="M69.3018 3.47037V4.84025H64.3474V3.47037H69.3018ZM65.7058 12.2376V2.45437C65.7058 1.90642 65.8257 1.45169 66.0654 1.0902C66.3052 0.724896 66.6229 0.452823 67.0186 0.273977C67.4144 0.0913257 67.8444 0 68.3086 0C68.6511 0 68.9441 0.0285394 69.1876 0.0856183C69.4312 0.138891 69.6119 0.188359 69.7299 0.234022L69.3303 1.61532C69.2504 1.59249 69.1477 1.56585 69.0221 1.53541C68.8965 1.50116 68.7443 1.48404 68.5655 1.48404C68.1507 1.48404 67.8539 1.58678 67.675 1.79226C67.5 1.99775 67.4125 2.29455 67.4125 2.68269V12.2376H65.7058Z" fill="#2C190A"/>
<path id="Vector_3" d="M58.5296 12.4314C57.9741 12.4314 57.4718 12.3287 57.0228 12.1232C56.5738 11.9139 56.218 11.6114 55.9554 11.2157C55.6966 10.8199 55.5673 10.3347 55.5673 9.76016C55.5673 9.26548 55.6624 8.85832 55.8527 8.53868C56.0429 8.21904 56.2998 7.96599 56.6232 7.77954C56.9467 7.59308 57.3082 7.45229 57.7077 7.35715C58.1073 7.26202 58.5144 7.18972 58.9292 7.14026C59.4543 7.07937 59.8805 7.02991 60.2077 6.99185C60.535 6.95 60.7728 6.8834 60.9212 6.79208C61.0696 6.70075 61.1438 6.55235 61.1438 6.34687V6.30691C61.1438 5.80843 61.003 5.4222 60.7214 5.14822C60.4437 4.87424 60.0289 4.73725 59.4771 4.73725C58.9025 4.73725 58.4497 4.86473 58.1187 5.11968C57.7914 5.37083 57.565 5.65051 57.4394 5.95873L55.8355 5.59343C56.0258 5.0607 56.3036 4.63071 56.6689 4.30346C57.038 3.9724 57.4623 3.73267 57.9417 3.58427C58.4212 3.43206 58.9254 3.35596 59.4543 3.35596C59.8044 3.35596 60.1754 3.39781 60.5673 3.48153C60.9631 3.56144 61.3322 3.70984 61.6747 3.92674C62.0209 4.14364 62.3044 4.45377 62.5251 4.85712C62.7458 5.25667 62.8562 5.77608 62.8562 6.41536V12.2374H61.1895V11.0387H61.121C61.0106 11.2594 60.8451 11.4763 60.6244 11.6894C60.4037 11.9025 60.1202 12.0794 59.7739 12.2202C59.4277 12.361 59.0129 12.4314 58.5296 12.4314ZM58.9006 11.0615C59.3725 11.0615 59.7758 10.9683 60.1107 10.7819C60.4494 10.5954 60.7062 10.3519 60.8813 10.0513C61.0601 9.74684 61.1495 9.42149 61.1495 9.07522V7.94506C61.0887 8.00595 60.9707 8.06302 60.7957 8.1163C60.6244 8.16577 60.4284 8.20953 60.2077 8.24758C59.987 8.28183 59.772 8.31417 59.5628 8.34461C59.3535 8.37125 59.1784 8.39408 59.0376 8.41311C58.7066 8.45496 58.4041 8.52536 58.1301 8.6243C57.8599 8.72323 57.643 8.86593 57.4794 9.05238C57.3196 9.23503 57.2397 9.47857 57.2397 9.78299C57.2397 10.2054 57.3957 10.525 57.7077 10.7419C58.0197 10.955 58.4174 11.0615 58.9006 11.0615Z" fill="#2C190A"/>
<path id="Vector_4" d="M49.888 12.2379V3.47064H51.5375V4.86335H51.6289C51.7887 4.3915 52.0703 4.02049 52.4736 3.75032C52.8808 3.47634 53.3412 3.33936 53.8549 3.33936C53.9615 3.33936 54.087 3.34316 54.2316 3.35077C54.38 3.35838 54.4961 3.36789 54.5798 3.37931V5.01175C54.5113 4.99273 54.3896 4.9718 54.2145 4.94897C54.0395 4.92233 53.8644 4.90901 53.6894 4.90901C53.286 4.90901 52.9264 4.99463 52.6106 5.16586C52.2986 5.33329 52.0512 5.56732 51.8686 5.86793C51.6859 6.16474 51.5946 6.5034 51.5946 6.88393V12.2379H49.888Z" fill="#2C190A"/>
<path id="Vector_5" d="M47.9145 4.34943H46.1336C46.0652 3.9689 45.9377 3.63404 45.7512 3.34485C45.5648 3.05565 45.3365 2.81021 45.0663 2.60853C44.7961 2.40686 44.4936 2.25465 44.1587 2.15191C43.8277 2.04917 43.4757 1.9978 43.1028 1.9978C42.4293 1.9978 41.8261 2.16713 41.2934 2.50579C40.7645 2.84446 40.3459 3.34104 40.0377 3.99554C39.7333 4.65004 39.581 5.44914 39.581 6.39283C39.581 7.34414 39.7333 8.14704 40.0377 8.80154C40.3459 9.45604 40.7664 9.95072 41.2991 10.2856C41.8318 10.6204 42.4312 10.7879 43.0971 10.7879C43.4662 10.7879 43.8163 10.7384 44.1473 10.6395C44.4822 10.5367 44.7847 10.3864 45.0549 10.1885C45.325 9.99068 45.5533 9.74905 45.7398 9.46365C45.9301 9.17446 46.0613 8.8434 46.1336 8.47049L47.9145 8.4762C47.8194 9.05079 47.6348 9.57971 47.3608 10.063C47.0907 10.5424 46.7425 10.9572 46.3163 11.3073C45.8939 11.6536 45.4107 11.9218 44.8665 12.1121C44.3224 12.3024 43.7287 12.3975 43.0857 12.3975C42.0735 12.3975 41.1716 12.1578 40.3801 11.6783C39.5887 11.195 38.9646 10.5044 38.508 9.60635C38.0551 8.70832 37.8287 7.63714 37.8287 6.39283C37.8287 5.14472 38.057 4.07355 38.5137 3.17932C38.9703 2.28128 39.5944 1.59254 40.3858 1.11308C41.1773 0.629816 42.0773 0.388184 43.0857 0.388184C43.7059 0.388184 44.2843 0.477607 44.8208 0.656453C45.3612 0.831493 45.8464 1.09025 46.2763 1.43272C46.7063 1.77138 47.0621 2.18615 47.3437 2.67703C47.6253 3.1641 47.8156 3.72156 47.9145 4.34943Z" fill="#2C190A"/>
<path id="Vector_6" d="M31.289 12.4087C30.5812 12.4087 29.9495 12.228 29.394 11.8665C28.8422 11.5012 28.4084 10.9818 28.0926 10.3083C27.7805 9.63093 27.6245 8.81852 27.6245 7.87101C27.6245 6.92351 27.7824 6.113 28.0983 5.43947C28.4179 4.76595 28.8555 4.25034 29.4111 3.89265C29.9666 3.53496 30.5964 3.35611 31.3004 3.35611C31.8445 3.35611 32.2821 3.44744 32.6132 3.63009C32.948 3.80893 33.2068 4.01822 33.3894 4.25795C33.5759 4.49768 33.7205 4.70887 33.8232 4.89152H33.926V0.547852H35.6326V12.2375H33.9659V10.8733H33.8232C33.7205 11.0598 33.5721 11.2729 33.378 11.5126C33.1878 11.7523 32.9252 11.9616 32.5904 12.1405C32.2555 12.3193 31.8217 12.4087 31.289 12.4087ZM31.6657 10.9532C32.1566 10.9532 32.5713 10.8239 32.91 10.5651C33.2525 10.3026 33.5112 9.93916 33.6863 9.47492C33.8651 9.01068 33.9545 8.47034 33.9545 7.85389C33.9545 7.24505 33.867 6.71232 33.692 6.25569C33.5169 5.79907 33.2601 5.44328 32.9214 5.18833C32.5827 4.93338 32.1642 4.8059 31.6657 4.8059C31.152 4.8059 30.7239 4.93909 30.3814 5.20545C30.0389 5.47182 29.7802 5.83522 29.6052 6.29565C29.4339 6.75608 29.3483 7.2755 29.3483 7.85389C29.3483 8.4399 29.4358 8.96692 29.6109 9.43496C29.7859 9.903 30.0447 10.274 30.3871 10.548C30.7334 10.8182 31.1596 10.9532 31.6657 10.9532Z" fill="#2C190A"/>
<path id="Vector_7" d="M22.0152 12.4143C21.1932 12.4143 20.4759 12.2259 19.8633 11.8492C19.2507 11.4725 18.775 10.9455 18.4363 10.2682C18.0977 9.59082 17.9283 8.79934 17.9283 7.89369C17.9283 6.98424 18.0977 6.18895 18.4363 5.50781C18.775 4.82668 19.2507 4.29775 19.8633 3.92103C20.4759 3.54432 21.1932 3.35596 22.0152 3.35596C22.8371 3.35596 23.5544 3.54432 24.167 3.92103C24.7797 4.29775 25.2553 4.82668 25.594 5.50781C25.9326 6.18895 26.102 6.98424 26.102 7.89369C26.102 8.79934 25.9326 9.59082 25.594 10.2682C25.2553 10.9455 24.7797 11.4725 24.167 11.8492C23.5544 12.2259 22.8371 12.4143 22.0152 12.4143ZM22.0209 10.9816C22.5536 10.9816 22.995 10.8408 23.3451 10.5593C23.6952 10.2777 23.9539 9.90285 24.1214 9.43481C24.2926 8.96677 24.3782 8.45116 24.3782 7.88798C24.3782 7.32862 24.2926 6.81491 24.1214 6.34687C23.9539 5.87502 23.6952 5.4964 23.3451 5.21101C22.995 4.92561 22.5536 4.78292 22.0209 4.78292C21.4843 4.78292 21.0391 4.92561 20.6852 5.21101C20.3352 5.4964 20.0745 5.87502 19.9033 6.34687C19.7358 6.81491 19.6521 7.32862 19.6521 7.88798C19.6521 8.45116 19.7358 8.96677 19.9033 9.43481C20.0745 9.90285 20.3352 10.2777 20.6852 10.5593C21.0391 10.8408 21.4843 10.9816 22.0209 10.9816Z" fill="#2C190A"/>
<path id="Vector_8" d="M12.3304 12.4143C11.5084 12.4143 10.7911 12.2259 10.1785 11.8492C9.56586 11.4725 9.09021 10.9455 8.75154 10.2682C8.41288 9.59082 8.24355 8.79934 8.24355 7.89369C8.24355 6.98424 8.41288 6.18895 8.75154 5.50781C9.09021 4.82668 9.56586 4.29775 10.1785 3.92103C10.7911 3.54432 11.5084 3.35596 12.3304 3.35596C13.1523 3.35596 13.8696 3.54432 14.4822 3.92103C15.0949 4.29775 15.5705 4.82668 15.9092 5.50781C16.2478 6.18895 16.4172 6.98424 16.4172 7.89369C16.4172 8.79934 16.2478 9.59082 15.9092 10.2682C15.5705 10.9455 15.0949 11.4725 14.4822 11.8492C13.8696 12.2259 13.1523 12.4143 12.3304 12.4143ZM12.3361 10.9816C12.8688 10.9816 13.3102 10.8408 13.6603 10.5593C14.0104 10.2777 14.2691 9.90285 14.4366 9.43481C14.6078 8.96677 14.6934 8.45116 14.6934 7.88798C14.6934 7.32862 14.6078 6.81491 14.4366 6.34687C14.2691 5.87502 14.0104 5.4964 13.6603 5.21101C13.3102 4.92561 12.8688 4.78292 12.3361 4.78292C11.7995 4.78292 11.3543 4.92561 11.0004 5.21101C10.6504 5.4964 10.3897 5.87502 10.2185 6.34687C10.051 6.81491 9.96731 7.32862 9.96731 7.88798C9.96731 8.45116 10.051 8.96677 10.2185 9.43481C10.3897 9.90285 10.6504 10.2777 11.0004 10.5593C11.3543 10.8408 11.7995 10.9816 12.3361 10.9816Z" fill="#2C190A"/>
<path id="Vector_9" d="M0 12.2375V0.547852H7.24896V2.06614H1.76372V5.62783H6.72955V7.14041H1.76372V12.2375H0Z" fill="#2C190A"/>
</g>
</svg>
