<svg width="14" height="10" viewBox="0 0 14 10" fill="none" xmlns="http://www.w3.org/2000/svg">
<g id="Layer 2">
<path id="search" d="M13.77 9.04709L11.1264 7.16436C11.9794 6.3882 12.4422 5.42973 12.4404 4.44301C12.4404 3.56427 12.0756 2.70526 11.3921 1.97461C10.7087 1.24396 9.73719 0.674487 8.60059 0.338206C7.464 0.00192508 6.21332 -0.0860614 5.00672 0.0853732C3.80011 0.256808 2.69178 0.679964 1.82186 1.30133C0.951949 1.9227 0.359531 2.71437 0.119523 3.57623C-0.120486 4.43809 0.00269511 5.33143 0.473489 6.14328C0.944282 6.95514 1.74154 7.64904 2.76445 8.13724C3.78736 8.62545 4.98998 8.88603 6.22022 8.88603C7.60162 8.88725 8.94347 8.55668 10.0301 7.94744L12.6659 9.83572C12.7382 9.88777 12.8242 9.92909 12.9189 9.95729C13.0137 9.98548 13.1153 10 13.218 10C13.3206 10 13.4222 9.98548 13.517 9.95729C13.6117 9.92909 13.6977 9.88777 13.77 9.83572C13.8429 9.78409 13.9007 9.72267 13.9402 9.65499C13.9797 9.58731 14 9.51472 14 9.4414C14 9.36809 13.9797 9.2955 13.9402 9.22782C13.9007 9.16014 13.8429 9.09872 13.77 9.04709ZM1.55506 4.44301C1.55506 3.78396 1.82866 3.1397 2.34128 2.59171C2.85389 2.04372 3.58249 1.61662 4.43494 1.36441C5.28739 1.1122 6.2254 1.04621 7.13035 1.17478C8.0353 1.30336 8.86655 1.62073 9.51899 2.08675C10.1714 2.55278 10.6157 3.14653 10.7957 3.79292C10.9757 4.43932 10.8834 5.10932 10.5303 5.71821C10.1772 6.32711 9.57923 6.84753 8.81205 7.21369C8.04486 7.57984 7.1429 7.77527 6.22022 7.77527C4.98294 7.77527 3.79634 7.4242 2.92145 6.79928C2.04656 6.17436 1.55506 5.32678 1.55506 4.44301Z" fill="white" fill-opacity="0.7"/>
</g>
</svg>
