<svg width="39" height="12" viewBox="0 0 39 12" fill="none" xmlns="http://www.w3.org/2000/svg">
<g id="Menu">
<path id="Vector" d="M36.484 7.60658V2.81787H38.082V10.9997H36.5159V9.58279H36.4307C36.2425 10.0196 35.9406 10.3836 35.5252 10.6748C35.1132 10.9624 34.6001 11.1062 33.9857 11.1062C33.4602 11.1062 32.995 10.9908 32.5901 10.76C32.1889 10.5256 31.8728 10.1794 31.642 9.72128C31.4147 9.26318 31.3011 8.69678 31.3011 8.02206V2.81787H32.8938V7.8303C32.8938 8.38783 33.0482 8.83172 33.3572 9.16198C33.6661 9.49223 34.0674 9.65736 34.561 9.65736C34.8593 9.65736 35.1558 9.58279 35.4506 9.43364C35.7489 9.28449 35.9957 9.05899 36.191 8.75715C36.3899 8.4553 36.4875 8.07178 36.484 7.60658Z" fill="#2C190A"/>
<path id="Vector_2" d="M23.9289 6.14182V10.9998H22.3362V2.81796H23.865V4.14964H23.9662C24.1544 3.7164 24.4492 3.36839 24.8504 3.1056C25.2553 2.84282 25.7649 2.71143 26.3792 2.71143C26.9367 2.71143 27.425 2.82861 27.8441 3.06299C28.2631 3.29381 28.588 3.63827 28.8188 4.09637C29.0497 4.55447 29.1651 5.12087 29.1651 5.79559V10.9998H27.5724V5.98735C27.5724 5.39431 27.4179 4.93089 27.109 4.59708C26.8 4.25972 26.3757 4.09104 25.8359 4.09104C25.4666 4.09104 25.1381 4.17094 24.8504 4.33074C24.5664 4.49054 24.3409 4.72492 24.174 5.03387C24.0106 5.33927 23.9289 5.70858 23.9289 6.14182Z" fill="#2C190A"/>
<path id="Vector_3" d="M17.0589 11.1649C16.2528 11.1649 15.5585 10.9927 14.9761 10.6482C14.3973 10.3002 13.9498 9.81192 13.6338 9.18337C13.3213 8.55127 13.165 7.81086 13.165 6.96214C13.165 6.12407 13.3213 5.38543 13.6338 4.74623C13.9498 4.10702 14.3902 3.60809 14.9548 3.24942C15.523 2.89076 16.1871 2.71143 16.947 2.71143C17.4086 2.71143 17.8561 2.78777 18.2893 2.94047C18.7226 3.09317 19.1114 3.33287 19.4559 3.65958C19.8003 3.98628 20.072 4.41064 20.2709 4.93266C20.4697 5.45113 20.5692 6.08145 20.5692 6.82364V7.38827H14.0653V6.19509H19.0084C19.0084 5.77606 18.9232 5.40496 18.7528 5.08181C18.5823 4.7551 18.3426 4.49765 18.0336 4.30944C17.7282 4.12123 17.3696 4.02712 16.9577 4.02712C16.5102 4.02712 16.1196 4.13721 15.7858 4.35738C15.4555 4.574 15.1998 4.85809 15.0187 5.20965C14.8412 5.55766 14.7524 5.93586 14.7524 6.34424V7.27641C14.7524 7.82329 14.8483 8.28848 15.04 8.67201C15.2354 9.05553 15.507 9.3485 15.855 9.55091C16.203 9.74978 16.6096 9.84921 17.0748 9.84921C17.3767 9.84921 17.6519 9.8066 17.9005 9.72137C18.1491 9.63259 18.3639 9.5012 18.545 9.32719C18.7261 9.15319 18.8646 8.93834 18.9605 8.68266L20.468 8.95432C20.3472 9.39821 20.1306 9.78706 19.8181 10.1209C19.5091 10.4511 19.1203 10.7086 18.6515 10.8932C18.1863 11.0744 17.6555 11.1649 17.0589 11.1649Z" fill="#2C190A"/>
<path id="Vector_4" d="M0.198486 0.0908203H2.196L5.66901 8.57093H5.79685L9.26987 0.0908203H11.2674V10.9999H9.70133V3.10574H9.60012L6.38279 10.9839H5.08307L1.86574 3.10041H1.76454V10.9999H0.198486V0.0908203Z" fill="#2C190A"/>
</g>
</svg>
