<svg width="45" height="13" viewBox="0 0 45 13" fill="none" xmlns="http://www.w3.org/2000/svg">
<g id="Profile">
<path id="Vector" d="M40.7014 12.1654C39.8953 12.1654 39.2011 11.9932 38.6187 11.6487C38.0399 11.3007 37.5924 10.8124 37.2764 10.1839C36.9639 9.55176 36.8076 8.81135 36.8076 7.96262C36.8076 7.12456 36.9639 6.38592 37.2764 5.74671C37.5924 5.10751 38.0328 4.60858 38.5974 4.24991C39.1656 3.89125 39.8296 3.71191 40.5896 3.71191C41.0512 3.71191 41.4987 3.78826 41.9319 3.94096C42.3651 4.09366 42.754 4.33336 43.0985 4.66007C43.4429 4.98677 43.7146 5.41113 43.9134 5.93315C44.1123 6.45162 44.2117 7.08194 44.2117 7.82413V8.38876H37.7078V7.19558H42.651C42.651 6.77654 42.5658 6.40545 42.3953 6.0823C42.2249 5.75559 41.9852 5.49814 41.6762 5.30993C41.3708 5.12172 41.0122 5.02761 40.6002 5.02761C40.1528 5.02761 39.7622 5.1377 39.4284 5.35787C39.0981 5.57448 38.8424 5.85858 38.6613 6.21014C38.4838 6.55815 38.395 6.93635 38.395 7.34473V8.2769C38.395 8.82377 38.4909 9.28897 38.6826 9.6725C38.8779 10.056 39.1496 10.349 39.4976 10.5514C39.8456 10.7503 40.2522 10.8497 40.7174 10.8497C41.0193 10.8497 41.2945 10.8071 41.5431 10.7219C41.7916 10.6331 42.0065 10.5017 42.1876 10.3277C42.3687 10.1537 42.5072 9.93883 42.6031 9.68315L44.1105 9.95481C43.9898 10.3987 43.7732 10.7876 43.4607 11.1214C43.1517 11.4516 42.7629 11.7091 42.2941 11.8937C41.8289 12.0748 41.298 12.1654 40.7014 12.1654Z" fill="#2C190A"/>
<path id="Vector_2" d="M35.0325 1.09082V11.9999H33.4398V1.09082H35.0325Z" fill="#2C190A"/>
<path id="Vector_3" d="M29.7044 12.0002V3.81836H31.2971V12.0002H29.7044ZM30.5088 2.55593C30.2318 2.55593 29.9938 2.4636 29.795 2.27894C29.5997 2.09073 29.502 1.86701 29.502 1.60778C29.502 1.34499 29.5997 1.12127 29.795 0.936612C29.9938 0.748402 30.2318 0.654297 30.5088 0.654297C30.7857 0.654297 31.0219 0.748402 31.2172 0.936612C31.4161 1.12127 31.5155 1.34499 31.5155 1.60778C31.5155 1.86701 31.4161 2.09073 31.2172 2.27894C31.0219 2.4636 30.7857 2.55593 30.5088 2.55593Z" fill="#2C190A"/>
<path id="Vector_4" d="M28.0611 3.81823V5.09664H23.4376V3.81823H28.0611ZM24.7053 12V2.87007C24.7053 2.35871 24.8172 1.93435 25.0409 1.59699C25.2646 1.25608 25.5611 1.00218 25.9305 0.835272C26.2998 0.664817 26.7011 0.57959 27.1343 0.57959C27.4539 0.57959 27.7273 0.606224 27.9546 0.659491C28.1819 0.709207 28.3506 0.755371 28.4606 0.797985L28.0878 2.08705C28.0132 2.06574 27.9173 2.04088 27.8001 2.01247C27.6829 1.98051 27.5409 1.96453 27.374 1.96453C26.9869 1.96453 26.7099 2.06041 26.543 2.25218C26.3797 2.44394 26.298 2.72093 26.298 3.08314V12H24.7053Z" fill="#2C190A"/>
<path id="Vector_5" d="M18.5756 12.1654C17.8086 12.1654 17.1392 11.9896 16.5675 11.6381C15.9957 11.2865 15.5518 10.7947 15.2358 10.1626C14.9197 9.53045 14.7617 8.79181 14.7617 7.94664C14.7617 7.09792 14.9197 6.35573 15.2358 5.72008C15.5518 5.08443 15.9957 4.59082 16.5675 4.23926C17.1392 3.8877 17.8086 3.71191 18.5756 3.71191C19.3427 3.71191 20.0121 3.8877 20.5838 4.23926C21.1555 4.59082 21.5994 5.08443 21.9155 5.72008C22.2315 6.35573 22.3896 7.09792 22.3896 7.94664C22.3896 8.79181 22.2315 9.53045 21.9155 10.1626C21.5994 10.7947 21.1555 11.2865 20.5838 11.6381C20.0121 11.9896 19.3427 12.1654 18.5756 12.1654ZM18.581 10.8284C19.0781 10.8284 19.4901 10.697 19.8168 10.4342C20.1435 10.1714 20.3849 9.82164 20.5412 9.38485C20.701 8.94806 20.7809 8.46689 20.7809 7.94132C20.7809 7.4193 20.701 6.9399 20.5412 6.50311C20.3849 6.06277 20.1435 5.70943 19.8168 5.44309C19.4901 5.17676 19.0781 5.04359 18.581 5.04359C18.0803 5.04359 17.6648 5.17676 17.3345 5.44309C17.0078 5.70943 16.7646 6.06277 16.6048 6.50311C16.4485 6.9399 16.3704 7.4193 16.3704 7.94132C16.3704 8.46689 16.4485 8.94806 16.6048 9.38485C16.7646 9.82164 17.0078 10.1714 17.3345 10.4342C17.6648 10.697 18.0803 10.8284 18.581 10.8284Z" fill="#2C190A"/>
<path id="Vector_6" d="M9.66541 12.0001V3.81832H11.2048V5.11803H11.2901C11.4392 4.67769 11.702 4.33145 12.0784 4.07932C12.4584 3.82364 12.8881 3.6958 13.3675 3.6958C13.4669 3.6958 13.5841 3.69935 13.719 3.70645C13.8575 3.71356 13.9658 3.72243 14.044 3.73309V5.25653C13.98 5.23877 13.8664 5.21924 13.703 5.19793C13.5397 5.17307 13.3763 5.16064 13.213 5.16064C12.8366 5.16064 12.501 5.24055 12.2062 5.40035C11.9151 5.5566 11.6842 5.77499 11.5138 6.05553C11.3433 6.33252 11.2581 6.64857 11.2581 7.00368V12.0001H9.66541Z" fill="#2C190A"/>
<path id="Vector_7" d="M0.198486 11.9999V1.09082H4.08698C4.9357 1.09082 5.63883 1.24529 6.19636 1.55424C6.75388 1.86319 7.17114 2.28578 7.44813 2.822C7.72512 3.35467 7.86362 3.95481 7.86362 4.62243C7.86362 5.29359 7.72335 5.89728 7.44281 6.43351C7.16582 6.96618 6.74678 7.38876 6.1857 7.70126C5.62817 8.01021 4.92682 8.16468 4.08165 8.16468H1.40765V6.76909H3.93251C4.46873 6.76909 4.90374 6.67676 5.23755 6.4921C5.57136 6.30389 5.81638 6.04821 5.97263 5.72505C6.12888 5.4019 6.20701 5.03436 6.20701 4.62243C6.20701 4.21049 6.12888 3.84473 5.97263 3.52512C5.81638 3.20552 5.56958 2.95517 5.23222 2.77406C4.89842 2.59295 4.45807 2.5024 3.9112 2.5024H1.84444V11.9999H0.198486Z" fill="#2C190A"/>
</g>
</svg>
