<svg width="82" height="8" viewBox="0 0 82 8" fill="none" xmlns="http://www.w3.org/2000/svg">
<g id="Search FoodCraft">
<path id="Vector" d="M80.9215 2.15545V2.70588H78.3185V2.15545H80.9215ZM79.1318 0.848633H79.7674V6.18599C79.7674 6.41326 79.8065 6.592 79.8846 6.72221C79.9627 6.85005 80.0645 6.9412 80.19 6.99565C80.3155 7.04773 80.4492 7.07378 80.5913 7.07378C80.6741 7.07378 80.7452 7.06904 80.8043 7.05957C80.8635 7.04773 80.9156 7.0359 80.9606 7.02406L81.0955 7.59579C81.034 7.61947 80.9582 7.64077 80.8683 7.65971C80.7783 7.68102 80.667 7.69167 80.5344 7.69167C80.3024 7.69167 80.0787 7.64077 79.8633 7.53897C79.6502 7.43717 79.475 7.28566 79.3377 7.08443C79.2004 6.8832 79.1318 6.63343 79.1318 6.33514V0.848633Z" fill="white" fill-opacity="0.7"/>
<path id="Vector_2" d="M77.5116 2.15554V2.70597H74.8304V2.15554H77.5116ZM75.6685 7.61009V1.35653C75.6685 1.06297 75.736 0.815578 75.8709 0.614347C76.0082 0.413116 76.187 0.260417 76.4072 0.15625C76.6273 0.0520833 76.8605 0 77.1067 0C77.2724 0 77.4098 0.0142043 77.5187 0.0426135C77.6299 0.0686552 77.7175 0.0946968 77.7814 0.120739L77.5968 0.674716C77.5494 0.660511 77.4914 0.64394 77.4228 0.625C77.3541 0.606061 77.2677 0.596591 77.1635 0.596591C76.8889 0.596591 76.677 0.673532 76.5279 0.827415C76.3787 0.981297 76.3042 1.20147 76.3042 1.48793L76.3006 7.61009H75.6685Z" fill="white" fill-opacity="0.7"/>
<path id="Vector_3" d="M71.2243 7.73446C70.8952 7.73446 70.5945 7.67054 70.3223 7.5427C70.05 7.41249 69.8334 7.22547 69.6724 6.98162C69.5114 6.73541 69.4309 6.43712 69.4309 6.08674C69.4309 5.81685 69.4818 5.58958 69.5836 5.40492C69.6854 5.22026 69.8298 5.06874 70.0169 4.95037C70.2039 4.832 70.4253 4.73849 70.6809 4.66983C70.9366 4.60118 71.2183 4.54791 71.5261 4.51003C71.8315 4.47215 72.0896 4.43901 72.3003 4.4106C72.5133 4.38219 72.6755 4.33721 72.7868 4.27566C72.898 4.2141 72.9537 4.11467 72.9537 3.97736V3.84952C72.9537 3.47784 72.8424 3.18546 72.6199 2.97239C72.3997 2.75695 72.0825 2.64924 71.6682 2.64924C71.2752 2.64924 70.9544 2.73565 70.7058 2.90847C70.4596 3.08129 70.2868 3.28489 70.1873 3.51926L69.5872 3.30265C69.7103 3.00435 69.8808 2.76642 70.0986 2.58887C70.3164 2.40894 70.5602 2.27992 70.8301 2.20179C71.1 2.1213 71.3734 2.08105 71.6504 2.08105C71.8587 2.08105 72.0754 2.10828 72.3003 2.16273C72.5275 2.21718 72.7382 2.31188 72.9324 2.44682C73.1265 2.5794 73.2839 2.76524 73.4047 3.00435C73.5254 3.24109 73.5858 3.54176 73.5858 3.90634V7.61017H72.9537V6.74725H72.9146C72.8388 6.90823 72.7264 7.06448 72.5772 7.216C72.4281 7.36751 72.2411 7.4918 72.0162 7.58887C71.7913 7.68593 71.5273 7.73446 71.2243 7.73446ZM71.3095 7.15563C71.6457 7.15563 71.9369 7.08105 72.1831 6.93191C72.4293 6.78276 72.6187 6.58508 72.7513 6.33887C72.8862 6.09029 72.9537 5.81685 72.9537 5.51855V4.7302C72.9063 4.77518 72.827 4.81543 72.7157 4.85094C72.6068 4.88645 72.4802 4.91841 72.3358 4.94682C72.1937 4.97286 72.0517 4.99535 71.9096 5.01429C71.7676 5.03323 71.6397 5.0498 71.5261 5.06401C71.2183 5.10189 70.9556 5.16107 70.7378 5.24157C70.52 5.32206 70.353 5.43333 70.237 5.57537C70.121 5.71505 70.063 5.89498 70.063 6.11515C70.063 6.44659 70.1814 6.70345 70.4182 6.88574C70.6549 7.06567 70.952 7.15563 71.3095 7.15563Z" fill="white" fill-opacity="0.7"/>
<path id="Vector_4" d="M66.1364 7.60995V2.15541H66.7507V2.99347H66.7969C66.9058 2.71885 67.0952 2.4975 67.3651 2.32941C67.6373 2.15896 67.9451 2.07373 68.2884 2.07373C68.3405 2.07373 68.3985 2.07491 68.4624 2.07728C68.5263 2.07965 68.5796 2.08202 68.6222 2.08438V2.72714C68.5938 2.7224 68.5441 2.7153 68.473 2.70583C68.402 2.69636 68.3251 2.69163 68.2422 2.69163C67.9581 2.69163 67.7048 2.752 67.4823 2.87274C67.2621 2.99111 67.0881 3.15564 66.9602 3.36634C66.8324 3.57705 66.7685 3.81734 66.7685 4.08722V7.60995H66.1364Z" fill="white" fill-opacity="0.7"/>
<path id="Vector_5" d="M64.7079 2.60995H64.0403C63.9906 2.36137 63.9006 2.13173 63.7704 1.92103C63.6426 1.70796 63.4816 1.52212 63.2875 1.3635C63.0934 1.20489 62.8732 1.08178 62.627 0.994185C62.3808 0.90659 62.1144 0.862793 61.828 0.862793C61.3687 0.862793 60.9496 0.982348 60.5709 1.22146C60.1944 1.46057 59.8926 1.81213 59.6653 2.27615C59.4404 2.73779 59.328 3.30361 59.328 3.97359C59.328 4.6483 59.4404 5.21649 59.6653 5.67813C59.8926 6.13978 60.1944 6.49016 60.5709 6.72927C60.9496 6.96601 61.3687 7.08438 61.828 7.08438C62.1144 7.08438 62.3808 7.04059 62.627 6.95299C62.8732 6.8654 63.0934 6.74348 63.2875 6.58723C63.4816 6.42861 63.6426 6.24276 63.7704 6.0297C63.9006 5.81663 63.9906 5.5858 64.0403 5.33722H64.7079C64.6488 5.67103 64.5375 5.98235 64.3741 6.27117C64.2131 6.55763 64.0072 6.80858 63.7562 7.02401C63.5077 7.23945 63.2212 7.40754 62.8969 7.52828C62.5725 7.64901 62.2162 7.70938 61.828 7.70938C61.2172 7.70938 60.675 7.55669 60.2015 7.25129C59.7281 6.94352 59.3564 6.51028 59.0865 5.95157C58.819 5.39286 58.6852 4.73353 58.6852 3.97359C58.6852 3.21365 58.819 2.55432 59.0865 1.99561C59.3564 1.43689 59.7281 1.00484 60.2015 0.69944C60.675 0.391675 61.2172 0.237793 61.828 0.237793C62.2162 0.237793 62.5725 0.298162 62.8969 0.418901C63.2212 0.537272 63.5077 0.70536 63.7562 0.923162C64.0072 1.1386 64.2131 1.38955 64.3741 1.676C64.5375 1.96246 64.6488 2.27378 64.7079 2.60995Z" fill="white" fill-opacity="0.7"/>
<path id="Vector_6" d="M54.7115 7.72377C54.264 7.72377 53.8722 7.6054 53.5361 7.36865C53.1999 7.13191 52.9371 6.80165 52.7477 6.37789C52.5607 5.95412 52.4672 5.46051 52.4672 4.89706C52.4672 4.33598 52.5607 3.84474 52.7477 3.42334C52.9371 2.99957 53.2011 2.6705 53.5396 2.43612C53.8781 2.19938 54.2723 2.08101 54.7221 2.08101C55.0536 2.08101 55.3294 2.1402 55.5495 2.25857C55.7697 2.37457 55.9461 2.51898 56.0787 2.69181C56.2112 2.86463 56.3142 3.03272 56.3876 3.19607H56.4444V0.337402H57.0801V7.61013H56.4622V6.59806H56.3876C56.3142 6.76378 56.2101 6.93423 56.0751 7.10942C55.9402 7.28224 55.7614 7.42784 55.5389 7.54621C55.3187 7.66458 55.0429 7.72377 54.7115 7.72377ZM54.7861 7.14493C55.1388 7.14493 55.4395 7.04905 55.688 6.85729C55.9366 6.66316 56.126 6.39682 56.2562 6.05828C56.3888 5.71737 56.4551 5.32675 56.4551 4.88641C56.4551 4.4508 56.39 4.0661 56.2598 3.73229C56.1296 3.39611 55.9402 3.13333 55.6916 2.94394C55.443 2.75218 55.1412 2.65629 54.7861 2.65629C54.4215 2.65629 54.1137 2.75573 53.8628 2.95459C53.6142 3.15109 53.4248 3.41742 53.2946 3.7536C53.1667 4.08977 53.1028 4.46737 53.1028 4.88641C53.1028 5.31018 53.1679 5.69252 53.2981 6.03342C53.4283 6.37433 53.6177 6.6454 53.8663 6.84664C54.1173 7.0455 54.4238 7.14493 54.7861 7.14493Z" fill="white" fill-opacity="0.7"/>
<path id="Vector_7" d="M48.9595 7.72381C48.4884 7.72381 48.0717 7.60426 47.7095 7.36515C47.3497 7.12604 47.068 6.79578 46.8644 6.37438C46.6608 5.95061 46.559 5.46174 46.559 4.90776C46.559 4.34905 46.6608 3.85781 46.8644 3.43404C47.068 3.0079 47.3497 2.67646 47.7095 2.43972C48.0717 2.20061 48.4884 2.08105 48.9595 2.08105C49.4306 2.08105 49.8461 2.20061 50.206 2.43972C50.5658 2.67883 50.8475 3.01027 51.0511 3.43404C51.2571 3.85781 51.3601 4.34905 51.3601 4.90776C51.3601 5.46174 51.2583 5.95061 51.0547 6.37438C50.8511 6.79578 50.5682 7.12604 50.206 7.36515C49.8461 7.60426 49.4306 7.72381 48.9595 7.72381ZM48.9595 7.14498C49.3383 7.14498 49.6591 7.04318 49.9219 6.83958C50.1847 6.63598 50.3835 6.36491 50.5185 6.02637C50.6558 5.68783 50.7244 5.31496 50.7244 4.90776C50.7244 4.50056 50.6558 4.12651 50.5185 3.7856C50.3835 3.44469 50.1847 3.17125 49.9219 2.96529C49.6591 2.75932 49.3383 2.65634 48.9595 2.65634C48.5831 2.65634 48.2623 2.75932 47.9972 2.96529C47.7344 3.17125 47.5343 3.44469 47.397 3.7856C47.2621 4.12651 47.1946 4.50056 47.1946 4.90776C47.1946 5.31496 47.2621 5.68783 47.397 6.02637C47.5343 6.36491 47.7344 6.63598 47.9972 6.83958C48.26 7.04318 48.5807 7.14498 48.9595 7.14498Z" fill="white" fill-opacity="0.7"/>
<path id="Vector_8" d="M43.0513 7.72381C42.5802 7.72381 42.1635 7.60426 41.8013 7.36515C41.4415 7.12604 41.1598 6.79578 40.9562 6.37438C40.7526 5.95061 40.6508 5.46174 40.6508 4.90776C40.6508 4.34905 40.7526 3.85781 40.9562 3.43404C41.1598 3.0079 41.4415 2.67646 41.8013 2.43972C42.1635 2.20061 42.5802 2.08105 43.0513 2.08105C43.5224 2.08105 43.9379 2.20061 44.2978 2.43972C44.6576 2.67883 44.9393 3.01027 45.1429 3.43404C45.3489 3.85781 45.4519 4.34905 45.4519 4.90776C45.4519 5.46174 45.3501 5.95061 45.1465 6.37438C44.9429 6.79578 44.66 7.12604 44.2978 7.36515C43.9379 7.60426 43.5224 7.72381 43.0513 7.72381ZM43.0513 7.14498C43.4301 7.14498 43.7509 7.04318 44.0137 6.83958C44.2765 6.63598 44.4753 6.36491 44.6103 6.02637C44.7476 5.68783 44.8162 5.31496 44.8162 4.90776C44.8162 4.50056 44.7476 4.12651 44.6103 3.7856C44.4753 3.44469 44.2765 3.17125 44.0137 2.96529C43.7509 2.75932 43.4301 2.65634 43.0513 2.65634C42.6749 2.65634 42.3541 2.75932 42.089 2.96529C41.8262 3.17125 41.6261 3.44469 41.4888 3.7856C41.3539 4.12651 41.2864 4.50056 41.2864 4.90776C41.2864 5.31496 41.3539 5.68783 41.4888 6.02637C41.6261 6.36491 41.8262 6.63598 42.089 6.83958C42.3518 7.04318 42.6725 7.14498 43.0513 7.14498Z" fill="white" fill-opacity="0.7"/>
<path id="Vector_9" d="M35.6037 7.61013V0.337402H39.8118V0.933993H36.2678V3.67192H39.4815V4.26851H36.2678V7.61013H35.6037Z" fill="white" fill-opacity="0.7"/>
<path id="Vector_10" d="M27.4618 4.20104V7.61013H26.8297V0.337402H27.4618V3.01141H27.5186C27.6465 2.72968 27.8442 2.50478 28.1117 2.33669C28.3816 2.16861 28.7225 2.08456 29.1344 2.08456C29.5037 2.08456 29.8281 2.16032 30.1074 2.31183C30.3868 2.46335 30.6046 2.68707 30.7608 2.983C30.9171 3.27893 30.9952 3.64351 30.9952 4.07675V7.61013H30.3595V4.11581C30.3595 3.666 30.2341 3.31207 29.9831 3.05402C29.7345 2.79361 29.3984 2.6634 28.9746 2.6634C28.6834 2.6634 28.4242 2.72495 28.1969 2.84806C27.9696 2.97116 27.7897 3.14872 27.6571 3.38073C27.5269 3.61037 27.4618 3.8838 27.4618 4.20104Z" fill="white" fill-opacity="0.7"/>
<path id="Vector_11" d="M23.394 7.72381C22.9063 7.72381 22.4814 7.60189 22.1192 7.35804C21.7593 7.1142 21.4799 6.78039 21.2811 6.35662C21.0822 5.93285 20.9828 5.4499 20.9828 4.90776C20.9828 4.36088 21.0834 3.87438 21.2846 3.44824C21.4882 3.02211 21.77 2.6883 22.1298 2.44682C22.4897 2.20298 22.9075 2.08105 23.3834 2.08105C23.7479 2.08105 24.0782 2.15208 24.3741 2.29412C24.6701 2.4338 24.9139 2.63148 25.1057 2.88716C25.2998 3.14048 25.4217 3.43641 25.4714 3.77495H24.8322C24.7659 3.46718 24.6061 3.2044 24.3528 2.98659C24.1019 2.76642 23.7823 2.65634 23.394 2.65634C23.046 2.65634 22.7382 2.75104 22.4707 2.94043C22.2032 3.12746 21.9937 3.38906 21.8422 3.72523C21.693 4.05904 21.6184 4.44611 21.6184 4.88645C21.6184 5.32916 21.6918 5.72097 21.8386 6.06188C21.9854 6.40042 22.1914 6.66557 22.4565 6.85733C22.724 7.04909 23.0365 7.14498 23.394 7.14498C23.6355 7.14498 23.8557 7.09999 24.0545 7.01003C24.2558 6.9177 24.4238 6.78749 24.5588 6.61941C24.6961 6.45132 24.7884 6.25127 24.8358 6.01927H25.475C25.4276 6.34834 25.3104 6.6419 25.1234 6.89995C24.9388 7.15563 24.6985 7.35686 24.4025 7.50364C24.109 7.65042 23.7728 7.72381 23.394 7.72381Z" fill="white" fill-opacity="0.7"/>
<path id="Vector_12" d="M17.8649 7.60995V2.15541H18.4792V2.99347H18.5254C18.6343 2.71885 18.8237 2.4975 19.0936 2.32941C19.3658 2.15896 19.6736 2.07373 20.0169 2.07373C20.0689 2.07373 20.1269 2.07491 20.1909 2.07728C20.2548 2.07965 20.3081 2.08202 20.3507 2.08438V2.72714C20.3223 2.7224 20.2725 2.7153 20.2015 2.70583C20.1305 2.69636 20.0536 2.69163 19.9707 2.69163C19.6866 2.69163 19.4333 2.752 19.2107 2.87274C18.9906 2.99111 18.8166 3.15564 18.6887 3.36634C18.5609 3.57705 18.497 3.81734 18.497 4.08722V7.60995H17.8649Z" fill="white" fill-opacity="0.7"/>
<path id="Vector_13" d="M13.8219 7.73446C13.4928 7.73446 13.1922 7.67054 12.9199 7.5427C12.6477 7.41249 12.4311 7.22547 12.2701 6.98162C12.1091 6.73541 12.0286 6.43712 12.0286 6.08674C12.0286 5.81685 12.0795 5.58958 12.1813 5.40492C12.2831 5.22026 12.4275 5.06874 12.6145 4.95037C12.8016 4.832 13.0229 4.73849 13.2786 4.66983C13.5343 4.60118 13.816 4.54791 14.1238 4.51003C14.4292 4.47215 14.6872 4.43901 14.8979 4.4106C15.111 4.38219 15.2731 4.33721 15.3844 4.27566C15.4957 4.2141 15.5513 4.11467 15.5513 3.97736V3.84952C15.5513 3.47784 15.4401 3.18546 15.2175 2.97239C14.9973 2.75695 14.6801 2.64924 14.2658 2.64924C13.8728 2.64924 13.552 2.73565 13.3035 2.90847C13.0572 3.08129 12.8844 3.28489 12.785 3.51926L12.1848 3.30265C12.308 3.00435 12.4784 2.76642 12.6962 2.58887C12.914 2.40894 13.1579 2.27992 13.4277 2.20179C13.6976 2.1213 13.9711 2.08105 14.2481 2.08105C14.4564 2.08105 14.673 2.10828 14.8979 2.16273C15.1252 2.21718 15.3359 2.31188 15.53 2.44682C15.7241 2.5794 15.8816 2.76524 16.0023 3.00435C16.1231 3.24109 16.1834 3.54176 16.1834 3.90634V7.61017H15.5513V6.74725H15.5123C15.4365 6.90823 15.324 7.06448 15.1749 7.216C15.0258 7.36751 14.8387 7.4918 14.6138 7.58887C14.3889 7.68593 14.1249 7.73446 13.8219 7.73446ZM13.9071 7.15563C14.2433 7.15563 14.5345 7.08105 14.7807 6.93191C15.0269 6.78276 15.2163 6.58508 15.3489 6.33887C15.4839 6.09029 15.5513 5.81685 15.5513 5.51855V4.7302C15.504 4.77518 15.4247 4.81543 15.3134 4.85094C15.2045 4.88645 15.0778 4.91841 14.9334 4.94682C14.7914 4.97286 14.6493 4.99535 14.5073 5.01429C14.3652 5.03323 14.2374 5.0498 14.1238 5.06401C13.816 5.10189 13.5532 5.16107 13.3354 5.24157C13.1176 5.32206 12.9507 5.43333 12.8347 5.57537C12.7187 5.71505 12.6607 5.89498 12.6607 6.11515C12.6607 6.44659 12.7791 6.70345 13.0158 6.88574C13.2526 7.06567 13.5497 7.15563 13.9071 7.15563Z" fill="white" fill-opacity="0.7"/>
<path id="Vector_14" d="M8.69319 7.72381C8.1842 7.72381 7.74386 7.60544 7.37217 7.3687C7.00048 7.12959 6.71284 6.79933 6.50924 6.37793C6.30801 5.95416 6.2074 5.46647 6.2074 4.91486C6.2074 4.36562 6.30801 3.87793 6.50924 3.45179C6.71284 3.02329 6.99338 2.6883 7.35086 2.44682C7.71071 2.20298 8.12619 2.08105 8.59731 2.08105C8.89324 2.08105 9.17851 2.13551 9.45314 2.24441C9.72776 2.35094 9.97397 2.51548 10.1918 2.73801C10.4119 2.95819 10.5859 3.23636 10.7138 3.57253C10.8416 3.90634 10.9056 4.3017 10.9056 4.75861V5.07111H6.64419V4.51358H10.2592C10.2592 4.1632 10.1882 3.84834 10.0462 3.56898C9.9065 3.28726 9.71118 3.06472 9.46024 2.90137C9.21166 2.73801 8.92402 2.65634 8.59731 2.65634C8.25167 2.65634 7.94745 2.74867 7.68467 2.93333C7.42189 3.11799 7.21592 3.36183 7.06677 3.66486C6.91999 3.96789 6.84542 4.29933 6.84305 4.65918V4.99299C6.84305 5.42623 6.91762 5.80501 7.06677 6.12935C7.21829 6.45132 7.43254 6.70108 7.70953 6.87864C7.98652 7.0562 8.3144 7.14498 8.69319 7.14498C8.95124 7.14498 9.17733 7.10473 9.37146 7.02424C9.56796 6.94374 9.73249 6.83603 9.86507 6.70108C10 6.56377 10.1018 6.41344 10.1705 6.25009L10.7706 6.4454C10.6877 6.67504 10.5516 6.88693 10.3622 7.08105C10.1752 7.27518 9.94083 7.43143 9.6591 7.5498C9.37975 7.66581 9.05778 7.72381 8.69319 7.72381Z" fill="white" fill-opacity="0.7"/>
<path id="Vector_15" d="M4.27912 2.15554C4.23887 1.75071 4.06013 1.42874 3.7429 1.18963C3.42566 0.950521 3.02675 0.830966 2.54616 0.830966C2.20762 0.830966 1.90933 0.888968 1.65128 1.00497C1.3956 1.12098 1.19437 1.28196 1.04759 1.48793C0.903172 1.69152 0.830966 1.92353 0.830966 2.18395C0.830966 2.37571 0.872396 2.5438 0.955256 2.68821C1.03812 2.83262 1.14938 2.95691 1.28906 3.06108C1.43111 3.16288 1.58736 3.25047 1.75781 3.32386C1.93063 3.39725 2.10464 3.45881 2.27983 3.50852L3.04688 3.72869C3.27888 3.79261 3.51089 3.87429 3.7429 3.97372C3.97491 4.07315 4.18679 4.19863 4.37855 4.35014C4.57268 4.49929 4.72775 4.68277 4.84375 4.90057C4.96212 5.116 5.02131 5.37524 5.02131 5.67827C5.02131 6.06652 4.92069 6.41572 4.71946 6.72585C4.51823 7.03599 4.2294 7.2822 3.85298 7.46449C3.47656 7.64441 3.02557 7.73438 2.5 7.73438C2.00521 7.73438 1.57552 7.6527 1.21094 7.48935C0.846354 7.32363 0.559896 7.09517 0.351562 6.80398C0.143229 6.51278 0.0260417 6.17543 0 5.7919H0.681818C0.705492 6.07836 0.800189 6.32102 0.965909 6.51989C1.13163 6.71875 1.34706 6.87027 1.61222 6.97443C1.87737 7.07623 2.1733 7.12713 2.5 7.12713C2.86222 7.12713 3.18419 7.06676 3.46591 6.94602C3.75 6.82292 3.97254 6.65246 4.13352 6.43466C4.29688 6.21449 4.37855 5.95881 4.37855 5.66761C4.37855 5.4214 4.31463 5.21544 4.18679 5.04972C4.05895 4.88163 3.88021 4.74077 3.65057 4.62713C3.4233 4.51349 3.15933 4.41288 2.85866 4.32528L1.98864 4.0696C1.41809 3.89915 0.975379 3.66359 0.660511 3.36293C0.345644 3.06226 0.18821 2.67874 0.18821 2.21236C0.18821 1.82173 0.292377 1.47846 0.50071 1.18253C0.711411 0.884233 0.995502 0.652225 1.35298 0.486506C1.71283 0.318418 2.11648 0.234375 2.56392 0.234375C3.0161 0.234375 3.41619 0.317235 3.7642 0.482955C4.11222 0.648675 4.38802 0.877131 4.59162 1.16832C4.79759 1.45715 4.90767 1.78622 4.92188 2.15554H4.27912Z" fill="white" fill-opacity="0.7"/>
</g>
</svg>
